<svg xmlns="http://www.w3.org/2000/svg" xmlns:xlink="http://www.w3.org/1999/xlink" viewBox="0 0 134.9 39.97"><defs><style>.a{fill:#fff;}.b{fill:#a6a6a6;}.c{fill:url(#a);}</style><linearGradient id="a" x1="-600.92" y1="519.38" x2="-600.92" y2="521.32" gradientTransform="matrix(74.17, 0, 0, -74.13, 44681.63, 38553.43)" gradientUnits="userSpaceOnUse"><stop offset="0" stop-color="#1a1a1a" stop-opacity="0.1"/><stop offset="0.12" stop-color="#212121" stop-opacity="0.15"/><stop offset="0.31" stop-color="#353535" stop-opacity="0.23"/><stop offset="0.53" stop-color="#575757" stop-opacity="0.32"/><stop offset="0.78" stop-color="#858585" stop-opacity="0.42"/><stop offset="1" stop-color="#b3b3b3" stop-opacity="0.51"/></linearGradient></defs><title>app_store</title><path class="a" d="M143.32,44.75a3.82,3.82,0,0,1-3.83,3.82H14.05a3.82,3.82,0,0,1-3.84-3.82V14.22a3.84,3.84,0,0,1,3.84-3.84H139.49a3.84,3.84,0,0,1,3.83,3.84h0V44.75Z" transform="translate(-9.32 -9.49)"/><path class="b" d="M139.49,49.46H14.05a4.73,4.73,0,0,1-4.73-4.71V14.22a4.74,4.74,0,0,1,4.73-4.73H139.49a4.75,4.75,0,0,1,4.73,4.73V44.75a4.73,4.73,0,0,1-4.73,4.71Z" transform="translate(-9.32 -9.49)"/><path d="M143.32,44.75a3.82,3.82,0,0,1-3.83,3.82H14.05a3.82,3.82,0,0,1-3.84-3.82V14.22a3.84,3.84,0,0,1,3.84-3.84H139.49a3.84,3.84,0,0,1,3.83,3.84h0V44.75Z" transform="translate(-9.32 -9.49)"/><path class="a" d="M39.44,29.27a5.79,5.79,0,0,1,2.76-4.86,5.93,5.93,0,0,0-4.67-2.53c-2-.21-3.88,1.18-4.88,1.18s-2.56-1.16-4.23-1.13a6.23,6.23,0,0,0-5.23,3.2c-2.27,3.92-.58,9.68,1.59,12.85,1.09,1.55,2.35,3.29,4,3.23s2.24-1,4.2-1,2.51,1,4.2,1S40,39.61,41.08,38a12.7,12.7,0,0,0,1.78-3.62,5.61,5.61,0,0,1-3.42-5.15Zm-3.2-9.47a5.72,5.72,0,0,0,1.31-4.09,5.77,5.77,0,0,0-3.76,1.94,5.4,5.4,0,0,0-1.34,3.94,4.83,4.83,0,0,0,3.79-1.79Z" transform="translate(-9.32 -9.49)"/><path class="c" d="M139.49,9.49H72.3l26.32,40h40.87a4.73,4.73,0,0,0,4.73-4.72V14.22A4.75,4.75,0,0,0,139.49,9.49Z" transform="translate(-9.32 -9.49)"/><path class="a" d="M63,41H60.7l-1.24-3.9H55.14L54,41H51.74L56,27.68h2.65L63,41Zm-3.89-5.54L58,32c-.12-.35-.34-1.19-.67-2.5h0c-.13.56-.34,1.4-.63,2.5l-1.11,3.48ZM74,36.07a5.43,5.43,0,0,1-1.33,3.87,3.92,3.92,0,0,1-3,1.26,3,3,0,0,1-2.74-1.36v5H64.81V34.54c0-1,0-2.07-.08-3.15h1.88l.12,1.52h0a3.77,3.77,0,0,1,6.06-.37A5.26,5.26,0,0,1,74,36.07Zm-2.17.08a3.94,3.94,0,0,0-.63-2.31,2.2,2.2,0,0,0-1.86-1,2.25,2.25,0,0,0-1.43.52A2.42,2.42,0,0,0,67,34.79a2.84,2.84,0,0,0-.1.64V37a2.59,2.59,0,0,0,.64,1.76,2.14,2.14,0,0,0,1.67.72,2.21,2.21,0,0,0,1.88-.92A4.15,4.15,0,0,0,71.8,36.15ZM85,36.07a5.43,5.43,0,0,1-1.33,3.87,3.9,3.9,0,0,1-3,1.26A2.94,2.94,0,0,1,78,39.84v5H75.84V34.54c0-1,0-2.07-.07-3.15h1.87l.12,1.52h0a3.78,3.78,0,0,1,6.07-.37A5.3,5.3,0,0,1,85,36.07Zm-2.17.08a3.94,3.94,0,0,0-.63-2.31,2.19,2.19,0,0,0-1.86-1,2.27,2.27,0,0,0-1.43.52,2.42,2.42,0,0,0-.84,1.38,3.05,3.05,0,0,0-.1.64V37a2.59,2.59,0,0,0,.64,1.76,2.14,2.14,0,0,0,1.67.72,2.2,2.2,0,0,0,1.88-.92A4.08,4.08,0,0,0,82.83,36.15Zm14.51,1.1A3.59,3.59,0,0,1,96.16,40a5.29,5.29,0,0,1-3.63,1.16,6.32,6.32,0,0,1-3.44-.83l.49-1.77a6,6,0,0,0,3.08.82,2.89,2.89,0,0,0,1.87-.54,1.76,1.76,0,0,0,.68-1.45,1.85,1.85,0,0,0-.56-1.36,5,5,0,0,0-1.83-1q-3.5-1.31-3.5-3.82a3.34,3.34,0,0,1,1.24-2.68,4.86,4.86,0,0,1,3.26-1.05,6.46,6.46,0,0,1,3,.64l-.53,1.73a5.38,5.38,0,0,0-2.56-.61,2.63,2.63,0,0,0-1.76.55A1.57,1.57,0,0,0,91.45,31a1.63,1.63,0,0,0,.62,1.3,6.78,6.78,0,0,0,1.93,1A6.5,6.5,0,0,1,96.53,35a3.35,3.35,0,0,1,.81,2.3ZM104.41,33h-2.35v4.66c0,1.18.41,1.77,1.24,1.77a3.64,3.64,0,0,0,1-.1l.06,1.62a4.78,4.78,0,0,1-1.66.24,2.59,2.59,0,0,1-2-.77,3.82,3.82,0,0,1-.71-2.59V33h-1.4v-1.6H100V29.63l2.1-.63v2.39h2.35V33ZM115,36.11a5.28,5.28,0,0,1-1.27,3.63,4.51,4.51,0,0,1-3.51,1.46,4.32,4.32,0,0,1-3.37-1.4,5.11,5.11,0,0,1-1.25-3.53,5.2,5.2,0,0,1,1.29-3.65,4.48,4.48,0,0,1,3.49-1.42,4.37,4.37,0,0,1,3.39,1.4A5,5,0,0,1,115,36.11Zm-2.21,0a4.26,4.26,0,0,0-.58-2.27,2.09,2.09,0,0,0-1.91-1.14,2.16,2.16,0,0,0-2,1.14,4.42,4.42,0,0,0-.57,2.31,4.29,4.29,0,0,0,.57,2.26,2.17,2.17,0,0,0,1.94,1.14,2.13,2.13,0,0,0,1.92-1.16,4.3,4.3,0,0,0,.59-2.28Zm9.14-2.89a3.91,3.91,0,0,0-.68-.06,2,2,0,0,0-1.73.85A3.15,3.15,0,0,0,119,36v5h-2.14V34.41c0-1,0-2-.06-3h1.86l.08,1.84h.06a3.28,3.28,0,0,1,1.06-1.52,2.55,2.55,0,0,1,1.54-.52,4,4,0,0,1,.53,0v2Zm9.53,2.46a5.22,5.22,0,0,1-.08,1H125a2.77,2.77,0,0,0,.92,2.17,3.17,3.17,0,0,0,2.1.67,7.09,7.09,0,0,0,2.58-.45l.34,1.48a8.12,8.12,0,0,1-3.22.59,4.66,4.66,0,0,1-3.5-1.31,4.83,4.83,0,0,1-1.28-3.52,5.49,5.49,0,0,1,1.19-3.61,4.08,4.08,0,0,1,3.35-1.54,3.56,3.56,0,0,1,3.14,1.54,5.11,5.11,0,0,1,.85,3Zm-2-.55a2.93,2.93,0,0,0-.42-1.64,1.86,1.86,0,0,0-1.69-.89,2,2,0,0,0-1.7.87,3.11,3.11,0,0,0-.63,1.66Z" transform="translate(-9.32 -9.49)"/><path class="a" d="M54.52,23A13.36,13.36,0,0,1,53,22.9V16.47a12.13,12.13,0,0,1,1.8-.14c2.45,0,3.57,1.21,3.57,3.17C58.36,21.76,57,23,54.52,23Zm.36-5.82a4.06,4.06,0,0,0-.84.07v4.89a5.88,5.88,0,0,0,.7,0,2.32,2.32,0,0,0,2.52-2.61A2.13,2.13,0,0,0,54.88,17.16Zm7,5.87A2.24,2.24,0,0,1,59.6,20.6,2.3,2.3,0,0,1,62,18.11a2.23,2.23,0,0,1,2.27,2.42A2.31,2.31,0,0,1,61.87,23Zm0-4.15c-.76,0-1.24.7-1.24,1.69s.49,1.68,1.23,1.68,1.23-.76,1.23-1.7-.48-1.67-1.22-1.67Zm10.17-.67L70.6,22.92h-1L69,20.87a15.35,15.35,0,0,1-.38-1.52h0a9.66,9.66,0,0,1-.38,1.52l-.65,2.05h-1l-1.39-4.71h1.08l.54,2.24c.12.53.23,1,.32,1.51h0a14.33,14.33,0,0,1,.38-1.5l.67-2.25h.86l.64,2.2c.15.53.28,1.06.38,1.55h0a15.33,15.33,0,0,1,.32-1.55l.58-2.2Zm5.42,4.71h-1V20.21c0-.83-.32-1.25-.95-1.25a1.1,1.1,0,0,0-1.05,1.16v2.8h-1V19.55c0-.41,0-.86,0-1.34h.92l0,.72h0a1.71,1.71,0,0,1,1.5-.82c1,0,1.64.76,1.64,2v2.82Zm2.89,0h-1V16h1Zm3.82.11a2.25,2.25,0,0,1-2.27-2.43,2.3,2.3,0,0,1,2.35-2.49,2.23,2.23,0,0,1,2.27,2.42A2.31,2.31,0,0,1,84.21,23Zm0-4.15c-.75,0-1.24.7-1.24,1.69s.5,1.68,1.23,1.68,1.23-.76,1.23-1.7-.48-1.67-1.22-1.67Zm6.44,4-.07-.54h0a1.61,1.61,0,0,1-1.38.65,1.37,1.37,0,0,1-1.44-1.39c0-1.16,1-1.76,2.75-1.76v-.09c0-.62-.33-.93-1-.93a2.16,2.16,0,0,0-1.23.35l-.21-.69a3,3,0,0,1,1.62-.41c1.23,0,1.85.65,1.85,1.95V21.8a6.7,6.7,0,0,0,.07,1.12Zm-.14-2.35c-1.16,0-1.75.29-1.75.95a.67.67,0,0,0,.72.74,1,1,0,0,0,1-1Zm6.11,2.35,0-.76h0a1.57,1.57,0,0,1-1.51.87,2.15,2.15,0,0,1-2-2.41,2.23,2.23,0,0,1,2.06-2.51,1.41,1.41,0,0,1,1.33.64h0V16h1v5.61c0,.46,0,.88,0,1.27Zm-.16-2.77a1.13,1.13,0,0,0-1.1-1.22c-.78,0-1.25.68-1.25,1.65s.49,1.6,1.23,1.6a1.17,1.17,0,0,0,1.12-1.25v-.78ZM104.2,23a2.24,2.24,0,0,1-2.27-2.43,2.3,2.3,0,0,1,2.35-2.49,2.23,2.23,0,0,1,2.27,2.42A2.31,2.31,0,0,1,104.2,23Zm0-4.15c-.76,0-1.24.7-1.24,1.69s.49,1.68,1.23,1.68,1.23-.76,1.23-1.7-.48-1.67-1.22-1.67Zm7.94,4h-1V20.21c0-.83-.32-1.25-1-1.25a1.09,1.09,0,0,0-1,1.16v2.8h-1V19.55c0-.41,0-.86,0-1.34H109l0,.72h0a1.69,1.69,0,0,1,1.49-.82c1,0,1.64.76,1.64,2Zm7-3.93h-1.15v2.29c0,.58.2.88.61.88a2,2,0,0,0,.47-.05l0,.79a2.23,2.23,0,0,1-.81.12c-.82,0-1.32-.46-1.32-1.65V19h-.69v-.78h.69v-.87l1-.31v1.18h1.15V19Zm5.55,3.93h-1V20.23c0-.84-.32-1.27-1-1.27a1,1,0,0,0-1,1.12v2.84h-1V16h1v2.84h0a1.58,1.58,0,0,1,1.42-.77c1,0,1.61.78,1.61,2v2.8Zm5.68-2.1h-3.14a1.35,1.35,0,0,0,1.48,1.39,3.59,3.59,0,0,0,1.27-.22l.17.73a4,4,0,0,1-1.58.29,2.19,2.19,0,0,1-2.35-2.38,2.3,2.3,0,0,1,2.23-2.53,2,2,0,0,1,2,2.24,2,2,0,0,1,0,.48Zm-1-.75c0-.73-.37-1.24-1-1.24a1.24,1.24,0,0,0-1.15,1.24Z" transform="translate(-9.32 -9.49)"/></svg>