<svg xmlns="http://www.w3.org/2000/svg" width="106.909" height="84" viewBox="0 0 106.909 84"><defs><style>.a{fill:#ef4f25;}</style></defs><g transform="translate(0 -59.013)"><g transform="translate(0 59.013)"><path class="a" d="M111.019,356.183a9.137,9.137,0,0,0,6.256-2.36l-30.289-30.29c-.727.52-1.431,1.026-2.1,1.508q-3.4,2.505-5.519,3.907a34,34,0,0,1-5.638,2.864,17.183,17.183,0,0,1-6.563,1.461h-.119a17.178,17.178,0,0,1-6.563-1.461,33.893,33.893,0,0,1-5.638-2.864q-2.119-1.4-5.519-3.907c-.632-.463-1.333-.972-2.091-1.516l-30.295,30.3a9.14,9.14,0,0,0,6.257,2.36Z" transform="translate(-13.657 -272.183)"/><path class="a" d="M6.026,203.746A31.629,31.629,0,0,1,0,198.555v46.084l26.7-26.7Q18.685,212.349,6.026,203.746Z" transform="translate(0 -171.47)"/><path class="a" d="M434.029,203.746q-12.189,8.25-20.72,14.207l26.686,26.687V198.555A32.925,32.925,0,0,1,434.029,203.746Z" transform="translate(-333.086 -171.47)"/><path class="a" d="M97.367,59.013H9.551a8.519,8.519,0,0,0-7.069,3.1A12.037,12.037,0,0,0,.006,69.87q0,3.758,3.281,8.144a29.6,29.6,0,0,0,6.98,6.89q2.028,1.433,12.231,8.5c3.672,2.544,6.865,4.762,9.609,6.676,2.339,1.63,4.356,3.041,6.021,4.212.191.134.492.349.891.635.43.309.974.7,1.645,1.185q1.939,1.4,3.221,2.268t3.1,1.939a18.1,18.1,0,0,0,3.431,1.611,9.493,9.493,0,0,0,2.983.537h.119a9.5,9.5,0,0,0,2.983-.537,18.059,18.059,0,0,0,3.431-1.611q1.819-1.074,3.1-1.939t3.222-2.268c.67-.485,1.214-.877,1.644-1.184.4-.286.7-.5.892-.635,1.3-.9,3.319-2.308,6.037-4.2Q82.25,94.944,96.714,84.9a28.376,28.376,0,0,0,7.278-7.338,15.784,15.784,0,0,0,2.921-9.008,9.624,9.624,0,0,0-9.546-9.546Z" transform="translate(-0.005 -59.013)"/></g></g></svg>